<?xml version="1.0" standalone="no"?>
<!DOCTYPE svg PUBLIC "-//W3C//DTD SVG 20010904//EN"
 "http://www.w3.org/TR/2001/REC-SVG-20010904/DTD/svg10.dtd">
<svg version="1.0" xmlns="http://www.w3.org/2000/svg"
 width="512.000000pt" height="512.000000pt" viewBox="0 0 512.000000 512.000000"
 preserveAspectRatio="xMidYMid meet">
<metadata>
Created by potrace 1.14, written by Peter Selinger 2001-2017
</metadata>
<g transform="translate(0.000000,512.000000) scale(0.100000,-0.100000)"
fill="#000000" stroke="none">
<path d="M3044 4466 c-55 -17 -157 -88 -190 -131 -23 -31 -32 -35 -70 -35
-155 0 -463 -108 -567 -200 -39 -33 -52 -37 -60 -15 -4 8 -47 41 -97 74 -122
80 -196 90 -306 41 -91 -40 -83 -86 47 -259 88 -118 102 -151 63 -151 -38 0
-262 -112 -308 -154 -65 -60 -46 -92 60 -103 30 -3 54 -7 54 -9 0 -2 -9 -26
-20 -53 -18 -45 -70 -234 -70 -253 0 -18 34 -6 80 30 27 20 61 45 75 55 15 11
24 21 22 24 -7 7 -88 -36 -114 -60 -13 -11 -26 -18 -29 -14 -14 14 57 241 95
303 11 18 35 44 55 59 34 26 40 27 208 32 191 6 487 -10 613 -34 44 -8 136
-28 205 -44 69 -17 139 -32 155 -34 57 -6 303 -108 324 -133 19 -25 8 -253
-18 -354 -49 -188 -242 -517 -331 -563 -60 -31 -63 -20 -16 73 80 161 99 231
100 367 1 109 -2 127 -28 197 -16 43 -35 83 -44 90 -8 7 -13 9 -11 3 31 -66
39 -91 54 -160 28 -137 1 -284 -84 -453 -67 -134 -68 -138 -34 -149 l28 -10
-40 -20 c-45 -23 -212 -75 -293 -92 -131 -27 -314 -4 -474 60 -187 74 -239
113 -285 217 -19 44 -22 60 -13 85 5 18 16 58 25 89 8 31 40 105 69 165 45 89
71 125 148 208 51 55 81 92 66 82 -16 -9 -39 -24 -53 -33 -50 -32 -140 -160
-200 -281 -33 -68 -63 -123 -66 -123 -12 0 -16 134 -8 230 16 173 45 296 96
398 25 51 44 94 41 97 -6 6 -91 -136 -107 -178 -17 -44 -61 -319 -61 -381 0
-31 -4 -56 -10 -56 -35 0 -114 -144 -180 -330 -127 -353 -127 -759 -1 -1008
37 -73 129 -198 211 -285 34 -37 61 -69 59 -71 -2 -2 -34 -13 -70 -25 -87 -29
-195 -94 -292 -177 -65 -56 -85 -81 -116 -143 -45 -90 -84 -198 -76 -212 10
-15 33 -11 88 17 52 27 146 45 332 63 93 9 310 -8 385 -30 163 -49 389 -159
462 -225 57 -51 75 -45 98 32 11 35 9 53 -9 127 -31 126 -101 249 -226 394
-58 67 -105 124 -105 127 0 3 23 6 50 6 61 0 185 25 254 51 49 18 75 33 236
135 181 115 211 138 316 241 95 93 117 120 156 198 73 143 192 541 222 741 9
60 21 131 26 157 13 63 13 238 0 257 -9 13 -11 13 -20 0 -5 -8 -10 -10 -10 -5
0 14 115 210 155 265 19 25 52 63 75 85 88 85 173 224 236 385 62 161 64 288
7 400 -39 75 -83 100 -179 100 -120 0 -213 -30 -337 -110 l-108 -70 -53 58
c-30 31 -92 82 -139 112 -48 30 -88 62 -90 70 -6 26 20 98 53 150 17 27 30 57
28 67 -4 23 -57 27 -114 9z m-293 -522 c10 -27 18 -59 18 -72 1 -22 -73 -142
-87 -142 -21 1 -30 22 -36 86 -7 71 -7 72 31 127 21 31 42 55 47 53 5 -1 18
-24 27 -52z m-181 -9 c12 -43 11 -46 -19 -94 -37 -57 -55 -58 -71 -3 -14 52
-13 58 16 102 36 54 58 52 74 -5z m-160 -5 c11 -27 10 -33 -15 -66 -32 -42
-47 -40 -59 9 -9 34 -7 40 19 67 32 33 37 32 55 -10z m872 -331 c29 -6 95 -22
147 -36 132 -35 221 -31 284 14 l45 33 5 -28 c9 -43 -11 -104 -68 -213 -30
-55 -51 -107 -48 -115 4 -10 -11 -5 -40 13 -25 15 -43 31 -40 37 3 5 1 6 -5 3
-5 -4 -45 14 -89 39 -73 44 -213 114 -227 114 -3 0 -54 20 -112 45 -57 25
-111 45 -119 45 -33 0 -12 19 38 34 92 27 149 31 229 15z m143 -263 c105 -57
158 -88 188 -111 17 -12 14 -21 -52 -142 -39 -70 -100 -199 -135 -286 -68
-167 -88 -204 -170 -329 -28 -42 -59 -90 -68 -107 -18 -33 -45 -44 -33 -13 4
9 11 49 16 87 6 39 17 103 25 144 8 41 14 118 13 171 -1 86 2 103 29 166 46
110 62 196 62 343 0 101 3 131 13 131 7 0 58 -24 112 -54z m-1572 -853 c52
-48 95 -71 217 -118 184 -70 376 -95 515 -66 127 27 268 62 302 76 20 8 36 15
37 15 0 0 1 -40 1 -88 l0 -88 -49 -12 c-128 -30 -252 -120 -366 -265 -72 -90
-127 -215 -121 -274 2 -21 20 -15 70 21 112 81 339 165 496 181 l67 8 -7 -34
c-17 -76 -61 -133 -135 -173 -56 -30 -68 -45 -79 -97 -12 -55 -37 -109 -50
-109 -11 0 -21 25 -21 51 0 10 -13 33 -29 51 -57 64 -140 31 -198 -79 -67
-124 -135 -192 -215 -214 -22 -5 -55 -25 -74 -43 l-35 -33 84 -84 c89 -90 105
-111 217 -289 61 -97 74 -127 87 -193 19 -95 10 -116 -34 -75 -47 43 -252 144
-370 182 -155 50 -367 75 -491 58 -198 -26 -285 -43 -324 -63 l-41 -21 7 29
c4 15 25 64 46 108 45 94 102 149 240 233 65 40 104 56 165 69 44 9 88 24 98
33 18 16 17 20 -11 106 -31 92 -55 217 -54 269 3 76 -49 182 -104 211 -29 16
-57 16 -97 -1 -17 -7 -18 0 -16 104 1 61 5 111 9 111 3 0 34 -42 69 -94 91
-139 154 -186 181 -137 19 36 12 204 -15 330 -38 177 -81 289 -139 358 -25 30
-25 32 -11 79 8 27 27 68 42 92 l28 42 31 -63 c18 -34 52 -81 77 -104z"/>
<path d="M2640 3403 c-19 -37 -59 -96 -88 -132 -29 -36 -87 -111 -129 -166
-41 -55 -79 -101 -83 -103 -15 -6 -78 83 -104 145 -24 58 -60 178 -69 233 -3
19 -5 16 -5 -10 -3 -82 61 -267 119 -345 43 -56 68 -66 89 -34 18 28 126 163
198 248 28 34 59 76 68 93 9 17 19 26 23 22 5 -5 22 -48 39 -96 58 -163 104
-228 162 -228 26 0 45 42 54 115 5 46 5 47 -4 15 -18 -61 -43 -110 -55 -110
-23 0 -66 42 -89 88 -32 64 -87 203 -89 225 -1 9 -4 17 -8 17 -4 0 -3 16 2 36
17 61 5 56 -31 -13z"/>
<path d="M2058 3163 c-21 -8 -38 -19 -38 -23 0 -5 12 -2 28 6 39 20 89 17 128
-7 19 -11 34 -16 34 -10 0 17 -61 51 -90 50 -14 0 -42 -7 -62 -16z"/>
<path d="M2011 3093 c-30 -37 -54 -127 -47 -169 4 -19 17 -45 29 -60 39 -45
129 -31 184 28 31 33 43 71 43 138 0 56 -2 60 -30 75 -17 9 -55 15 -94 15 -58
0 -67 -3 -85 -27z m110 -63 c11 -6 19 -21 19 -35 0 -25 -35 -65 -57 -65 -18 0
-53 37 -53 55 0 20 36 55 56 55 8 0 24 -5 35 -10z"/>
<path d="M2605 3093 c-60 -9 -42 -18 36 -18 79 0 81 0 111 -35 18 -21 25 -25
16 -10 -31 51 -91 74 -163 63z"/>
<path d="M2553 3035 c-26 -18 -44 -78 -46 -149 -1 -68 7 -87 45 -113 27 -18
43 -21 83 -17 65 6 92 25 116 80 27 64 25 135 -3 161 -57 52 -150 70 -195 38z
m121 -117 c13 -38 -16 -70 -58 -66 -43 4 -49 47 -10 77 35 27 56 24 68 -11z"/>
<path d="M2121 2743 c-26 -22 -40 -78 -41 -170 0 -68 6 -93 24 -93 7 0 12 33
13 100 2 114 7 137 31 144 23 8 229 -37 269 -58 19 -9 35 -27 39 -42 6 -23 -4
-35 -80 -106 -80 -74 -99 -98 -77 -98 16 0 190 139 202 161 20 39 -23 105 -84
128 -25 10 -133 31 -242 48 -21 3 -38 -2 -54 -14z"/>
<path d="M4631 504 c0 -11 3 -14 6 -6 3 7 2 16 -1 19 -3 4 -6 -2 -5 -13z"/>
<path d="M4621 468 c0 -9 -4 -25 -7 -35 -5 -17 -5 -17 6 0 6 10 9 25 7 35 -4
15 -5 15 -6 0z"/>
<path d="M4727 443 c-4 -3 -7 -11 -7 -17 0 -6 5 -5 12 2 6 6 9 14 7 17 -3 3
-9 2 -12 -2z"/>
<path d="M4443 399 c-18 -16 -33 -27 -33 -24 0 3 -20 -17 -45 -45 -25 -28 -45
-56 -45 -62 0 -15 68 50 75 72 3 8 18 24 35 33 16 10 35 27 40 38 14 26 11 24
-27 -12z"/>
<path d="M4765 404 c-9 -9 -13 -19 -10 -23 4 -3 11 2 16 12 14 24 27 21 32 -5
4 -20 4 -19 6 5 1 31 -18 36 -44 11z"/>
<path d="M4560 393 c-8 -10 -21 -31 -28 -47 -11 -24 -15 -27 -23 -15 -7 11 -9
9 -9 -8 0 -12 -3 -30 -7 -40 -10 -28 30 24 61 80 28 50 30 58 6 30z"/>
<path d="M4710 394 c-14 -7 -21 -14 -16 -14 5 0 3 -7 -4 -15 -11 -13 -15 -13
-21 -3 -7 10 -9 9 -9 -4 0 -28 23 -21 53 17 15 19 27 35 25 34 -2 -1 -14 -7
-28 -15z"/>
<path d="M4468 342 c-43 -46 -79 -101 -78 -119 1 -4 9 8 20 28 10 20 40 58 65
84 26 26 44 49 42 51 -2 2 -24 -18 -49 -44z"/>
<path d="M4573 363 c-15 -5 -17 -23 -4 -23 5 0 11 7 15 15 3 8 4 15 3 14 -1 0
-8 -3 -14 -6z"/>
<path d="M4612 345 c0 -16 2 -22 5 -12 2 9 2 23 0 30 -3 6 -5 -1 -5 -18z"/>
<path d="M4812 345 c0 -11 4 -31 8 -45 6 -20 8 -21 8 -5 0 11 -4 31 -8 45 -6
20 -8 21 -8 5z"/>
<path d="M4622 314 c-7 -8 -8 -14 -3 -14 10 0 25 19 20 25 -2 1 -10 -3 -17
-11z"/>
<path d="M4830 255 c0 -5 5 -17 10 -25 5 -8 10 -10 10 -5 0 6 -5 17 -10 25 -5
8 -10 11 -10 5z"/>
<path d="M4380 181 c0 -17 4 -32 8 -35 4 -2 6 11 4 30 -5 42 -12 45 -12 5z"/>
<path d="M4440 158 c-12 -22 -12 -22 6 -6 10 10 15 20 12 24 -4 3 -12 -5 -18
-18z"/>
</g>
</svg>
